<svg width="90" height="44" viewBox="0 0 90 44" fill="none" xmlns="http://www.w3.org/2000/svg">
<path fill-rule="evenodd" clip-rule="evenodd" d="M89.3958 22.9922C83.8555 25.8787 80.4411 24.2817 74.8992 25.369V2.56391C81.3394 2.85893 84.0292 2.37163 89.3958 0.603943C87.9181 7.08548 82.5868 13.2778 82.5868 13.2778C84.2269 16.9231 86.5376 20.2198 89.3958 22.9922Z" fill="url(#paint0_linear)"/>
<path fill-rule="evenodd" clip-rule="evenodd" d="M70.1117 10.5764C73.7896 10.5764 77.0531 9.52975 78.2913 7.90925C80.8972 4.49913 77.1583 1.33904 70.5863 3.35628C67.3596 4.35085 63.3726 5.63555 59.3755 6.4939C53.3031 7.79704 47.8774 8.98718 36.8455 10.5388L70.1117 10.5764Z" fill="#4E9D2D"/>
<path fill-rule="evenodd" clip-rule="evenodd" d="M0.60376 20.4946C6.22424 17.6128 11.2903 19.2083 16.9125 18.1208V40.9283C10.3798 40.6316 6.04846 41.1205 0.60376 42.8859C2.10655 36.4071 7.51301 29.6249 7.51301 29.6249C7.51301 29.6249 5.35191 24.9843 0.60376 20.4946Z" fill="url(#paint1_linear)"/>
<path fill-rule="evenodd" clip-rule="evenodd" d="M32.9305 35.7968C25.3679 38.1601 20.7753 41.6547 14.9654 40.5583C10.8286 39.7784 10.5052 36.6667 13.2826 34.6758C15.8501 32.8303 20.2295 32.3117 22.7903 32.3109C25.3541 32.3093 45.3018 32.3093 45.3018 32.3093C45.3018 32.3093 40.7046 33.371 32.9305 35.7968Z" fill="#4E9D2D"/>
<path fill-rule="evenodd" clip-rule="evenodd" d="M65.8444 10.5576C56.1401 10.556 25.0966 10.5568 19.6262 10.556C11.7963 10.5568 10.5645 15.0052 10.5645 18.5331V20.5806C10.5645 20.5806 10.8603 32.6177 11.0842 37.4496C11.0514 36.3493 11.4904 35.3089 12.4748 34.4374C15.1595 32.0605 19.3884 31.5483 24.172 31.5083C33.3402 31.4368 56.6754 31.5083 69.293 31.5083C74.2424 31.5083 78.5218 30.196 78.5235 24.1117C78.5218 19.7755 78.4385 6.04018 78.4385 6.04018C78.4385 6.04018 78.1153 7.17951 77.8181 7.59701C76.3855 9.59793 73.734 10.5568 65.8444 10.5576Z" fill="#CF0A2C"/>
<path fill-rule="evenodd" clip-rule="evenodd" d="M89.9839 0.748018C88.6292 6.64434 84.2649 12.1934 83.1527 13.5404C84.7994 17.0105 87.0543 20.1557 89.81 22.826C89.953 22.962 90.0216 23.159 89.994 23.3547C89.9664 23.5504 89.8461 23.7206 89.6712 23.8115C86.001 25.7083 83.2119 25.7582 80.2625 25.8111L80.2602 25.8111L80.1651 25.813L80.0286 25.8162L80.0281 25.8162C79.9133 25.819 79.7988 25.8218 79.6849 25.8228C79.4123 28.1461 78.4289 29.879 76.7481 30.9802C75.1517 32.0228 73.0017 32.5075 69.9796 32.5075C68.1081 32.5075 58.1938 32.5059 48.0595 32.5017C43.0046 32.9632 39.7542 33.9823 36.4724 35.0113L36.47 35.012C36.2693 35.0749 36.0686 35.1379 35.8673 35.2007C35.4811 35.3214 35.1372 35.4267 34.8098 35.527L34.8096 35.527C34.1222 35.7375 33.5075 35.9257 32.7273 36.1871C30.1153 37.0594 27.7722 37.9811 25.7305 38.876C22.6189 40.2432 19.8472 41.4585 16.8447 41.4778C16.7732 41.4803 16.7084 41.482 16.6666 41.4803L16.6053 41.4777L16.605 41.4777C16.5436 41.4751 16.4848 41.4726 16.4241 41.4719C16.3841 41.4697 16.3444 41.468 16.3045 41.4663L16.3038 41.4663L16.3036 41.4662C16.2526 41.464 16.2012 41.4618 16.1486 41.4585C15.2363 41.4266 14.5597 41.4233 13.6922 41.4233C8.96243 41.4233 5.227 42.0129 0.795415 43.4581C0.735442 43.479 0.672425 43.4897 0.608934 43.4899C0.456778 43.4891 0.310326 43.4317 0.197911 43.3289C0.0354149 43.1802 -0.0341638 42.9549 0.0160351 42.7401C1.37616 36.8379 5.75675 30.8183 6.84677 29.3866C5.10446 26.1422 2.85729 23.1973 0.189969 20.6629C0.0470641 20.5263 -0.0212946 20.3289 0.00641687 20.1329C0.0341284 19.9369 0.1545 19.7663 0.329631 19.6749C3.75232 17.9119 7.01236 17.7475 10.1654 17.6905C10.5676 12.679 13.7846 10.1368 19.7435 10.1385L36.8649 10.1368C47.389 8.58661 52.8267 7.36624 58.5723 6.07677L58.5885 6.07315L59.183 5.94062C62.6718 5.15784 66.1068 4.04538 69.1411 3.06266L69.1412 3.06264L69.1869 3.04784C69.5849 2.92034 69.9746 2.79454 70.3509 2.67125C71.705 2.21682 73.1242 1.98817 74.5521 1.99438C74.5615 1.99271 74.5711 1.99271 74.5805 1.99438C74.614 1.99438 74.6508 1.99606 74.6867 1.99857C74.7202 1.9994 74.7561 2.0011 74.7913 2.00278C75.8984 2.04806 76.9053 2.06483 77.7791 2.06315C82.2471 2.06315 84.8076 1.46599 89.202 0.0300724C89.4107 -0.0381552 89.6399 0.0115847 89.8018 0.160253C89.9637 0.308922 90.0333 0.533497 89.9839 0.748018ZM59.4546 7.15013L58.8575 7.28349L58.8245 7.29092L58.8244 7.29094L58.8243 7.29095C54.6609 8.22599 50.6519 9.12636 44.7667 10.1385H66.5525C71.7179 10.1369 74.4733 9.71414 76.1023 8.94001C76.7244 8.64012 77.2703 8.20214 77.6986 7.65925C78.0203 7.24469 78.2486 6.76509 78.3676 6.25352C78.3852 6.14281 78.4019 6.01869 78.4153 5.88281C78.4402 5.43002 78.3081 4.98251 78.0415 4.61631C77.1342 3.35151 74.5577 2.62433 70.7286 3.85224C70.3518 3.97553 69.9643 4.1005 69.5663 4.22714L69.5378 4.23637C66.4758 5.22888 63.0042 6.35414 59.4546 7.15013ZM8.03805 29.8371C8.18219 29.6563 8.21076 29.4088 8.11165 29.1997C8.02636 29.0118 6.02526 24.7535 1.65764 20.393C4.53718 19.1047 7.27625 18.9654 10.1236 18.9118C10.1495 20.2135 10.4151 32.7962 10.6229 37.5686C10.6294 37.7815 10.6564 37.9933 10.7035 38.201C10.907 39.0231 11.4012 39.7432 12.0942 40.2274C8.49214 40.3126 4.91918 40.8974 1.477 41.9652C3.21269 36.0223 7.8708 30.0515 8.03405 29.8423L8.03805 29.8371ZM34.7552 34.2558C34.9816 34.1881 35.2221 34.1162 35.4895 34.0351C35.8512 33.9256 36.2109 33.8152 36.5712 33.7046L36.572 33.7043L36.5722 33.7043C37.9207 33.2903 39.276 32.8743 40.7599 32.501C32.4586 32.4977 25.3691 32.5019 24.2623 32.5094C17.0574 32.5698 14.552 33.9554 13.0539 35.3032C12.7768 35.5387 12.5292 35.8071 12.3168 36.1026C11.9725 36.6658 11.841 37.3342 11.9463 37.9863C12.1224 38.909 13.1881 39.7309 14.8154 40.0563C15.3031 40.156 15.7976 40.218 16.2947 40.2417C16.472 40.2442 16.6514 40.2493 16.8282 40.2543C19.569 40.2434 22.1425 39.1153 25.2411 37.7549C27.3154 36.8457 29.707 35.9381 32.3842 35.0105C33.3581 34.6735 33.9721 34.4899 34.755 34.2558L34.7552 34.2558ZM69.9799 31.2679C69.3357 31.2677 67.7391 31.267 65.5089 31.266H65.5059C54.181 31.261 26.5301 31.2488 24.2524 31.267C19.9784 31.3039 15.2073 31.7023 12.2266 34.3796C12.0624 34.529 11.9066 34.6875 11.76 34.8543C11.5622 29.2734 11.3594 18.8026 11.3594 18.8026C11.3594 16.6529 11.8302 15.0291 12.8027 13.8406C14.1365 12.2059 16.4713 11.3781 19.7439 11.3781H66.5531C74.131 11.3781 76.919 10.4236 78.461 8.74281C78.4861 12.9591 78.5312 21.25 78.5312 24.4288C78.5312 29.223 75.9724 31.267 69.9799 31.2679ZM79.7653 24.5982C79.7653 24.5982 80.0789 24.5923 80.2353 24.5898L80.2385 24.5897C82.9449 24.5411 85.3074 24.4986 88.3501 23.1002C85.6493 20.3685 83.4579 17.174 81.8793 13.6678C81.7919 13.454 81.832 13.2091 81.983 13.0345C82.0332 12.9783 86.7663 7.47456 88.5198 1.5313C84.8914 2.67282 82.31 3.22387 78.4775 3.28006C78.6884 3.4622 78.8791 3.66663 79.0462 3.88981C79.471 4.42693 79.696 5.09569 79.6825 5.78115C79.6834 6.52345 79.7653 24.5982 79.7653 24.5982Z" fill="white"/>
<path fill-rule="evenodd" clip-rule="evenodd" d="M26.2713 14.4982L21.95 26.9923H20.0259L15.7046 14.4966L19.4556 14.4982L21.6005 21.7298L23.7769 14.4966L26.2713 14.4982ZM33.2917 22.5248H28.3947C28.3209 23.7161 28.6889 25.2114 30.2426 25.2114C30.8711 25.2122 31.5717 24.8522 32.0716 24.5481L32.9205 26.1754L32.873 26.2012C32.2656 26.5314 31.0716 27.1804 29.5784 27.1804C26.8984 27.1796 25.0325 25.2482 25.0317 22.2775C25.0325 19.3637 26.9545 17.4523 29.3936 17.4515C33.3692 17.4507 33.3103 21.2799 33.2934 22.3713V22.3714V22.3715V22.3715V22.3716V22.3716V22.3717C33.2925 22.4312 33.2917 22.4826 33.2917 22.5248ZM29.5229 19.1339C30.4653 19.1339 30.4653 20.3678 30.4653 20.9918H28.4871L28.4889 20.945C28.5084 20.4173 28.556 19.1339 29.5229 19.1339ZM39.7549 17.4514C39.1649 17.4514 37.9456 17.5642 37.1482 19.0211L36.9664 17.641H34.2118V26.9924H37.3904V22.3367C37.3904 21.275 37.3904 19.7395 38.4069 19.7395C39.2391 19.7412 39.2391 20.6317 39.2391 21.5214V26.9924H42.4161L42.4169 21.4061C42.4161 20.1188 42.362 19.4555 42.1383 18.9476C41.7275 18.0082 40.7822 17.4148 39.7549 17.4514ZM47.3427 23.9049C47.3427 24.7369 47.3427 25.1738 48.0047 25.1738C48.1875 25.1718 48.3687 25.1399 48.5411 25.0794L48.9484 26.8037C48.2016 27.0389 47.4218 27.1532 46.6387 27.142C45.8242 27.1428 44.8671 26.8605 44.4402 26.0251C44.161 25.4685 44.1619 24.8607 44.1627 24.2989L44.1628 24.2089V19.3637H43.0155V17.6411H44.2726L44.384 15.16H47.1566L47.1558 17.642L48.7087 17.6411V19.3637H47.341L47.3427 23.9049ZM54.8271 22.2772C54.8519 22.8611 54.8089 23.4458 54.6989 24.0199C54.5732 24.5303 54.331 24.8912 53.8307 24.8903C53.4731 24.9093 53.1539 24.6687 53.0748 24.3206C52.9945 23.9164 52.9635 23.5041 52.9826 23.0926V17.6408L49.8073 17.6417V23.2229C49.8065 24.5303 49.8969 24.9847 50.0813 25.4567C50.4299 26.5089 51.4289 27.2091 52.5401 27.1801C53.4452 27.1801 54.3318 26.7633 55.0676 25.6088L55.2561 26.9922H58.0074V17.6408H54.8279L54.8271 22.2772ZM62.4943 20.0036C62.754 19.2116 63.3641 17.5275 64.7838 17.5275C64.8391 17.5275 64.8877 17.5292 64.9354 17.5308L64.9111 20.4204C64.7483 20.3895 64.5832 20.3719 64.4175 20.3678C64.1225 20.3678 63.365 20.4605 62.9753 21.4271C62.7339 22.0503 62.7339 23.3953 62.7339 24.1521V26.9924H59.5586V17.6411H62.3652L62.4943 20.0036ZM72.4826 26.9924H69.7716L69.6082 25.6842C68.9956 26.6499 68.1819 27.1804 67.0581 27.1804C65.5044 27.1804 64.5817 25.9482 64.5817 24.5481C64.5825 22.5039 66.4849 21.7095 69.4213 20.7655V20.6134C69.4213 19.7054 68.5514 19.4965 67.814 19.4973C67.2058 19.5041 66.6059 19.6385 66.0533 19.8917L66.0709 17.9051C66.9035 17.6099 67.78 17.4566 68.6637 17.4515C70.0481 17.4515 71.565 17.8675 72.1734 19.0212C72.3494 19.347 72.4525 19.6853 72.4835 20.5491L72.4826 26.9924ZM67.4999 24.1522C67.4999 23.1865 68.182 22.8657 69.4215 22.316V22.7705C69.4422 23.2795 69.3923 23.7889 69.2732 24.2842C69.1441 24.7771 68.8868 25.1363 68.3689 25.1363C68.0362 25.1363 67.4999 24.9082 67.4999 24.1706V24.1522Z" fill="white"/>
<defs>
<linearGradient id="paint0_linear" x1="90.0983" y1="-0.552249" x2="73.3107" y2="-1.14443" gradientUnits="userSpaceOnUse">
<stop stop-color="#FFCC00"/>
<stop offset="0.0085" stop-color="#FFCC00"/>
<stop offset="0.24479" stop-color="#FFCC00"/>
<stop offset="0.25279" stop-color="#FFCB01"/>
<stop offset="0.41569" stop-color="#FAB317"/>
<stop offset="0.58736" stop-color="#F6A127"/>
<stop offset="0.77379" stop-color="#F49730"/>
<stop offset="1" stop-color="#F39433"/>
</linearGradient>
<linearGradient id="paint1_linear" x1="-0.219122" y1="43.9134" x2="18.6066" y2="44.7422" gradientUnits="userSpaceOnUse">
<stop stop-color="#FFCC00"/>
<stop offset="0.20488" stop-color="#FFCC00"/>
<stop offset="0.21996" stop-color="#FEC902"/>
<stop offset="0.38585" stop-color="#F9B218"/>
<stop offset="0.56283" stop-color="#F6A127"/>
<stop offset="0.75678" stop-color="#F49730"/>
<stop offset="1" stop-color="#F39433"/>
</linearGradient>
</defs>
</svg>
