<svg width="14" height="14" viewBox="0 0 14 14" fill="none" xmlns="http://www.w3.org/2000/svg">
<path fill-rule="evenodd" clip-rule="evenodd" d="M10.4629 9.64L13.8286 13.0057C14.0571 13.2314 14.0571 13.6029 13.8286 13.8286C13.6 14.0571 13.2314 14.0571 13.0029 13.8286L9.63714 10.4657C8.62 11.3 7.32 11.8 5.9 11.8C2.64 11.8 0 9.15714 0 5.9C0 2.64286 2.64 0 5.9 0C9.15714 0 11.8 2.64286 11.8 5.9C11.8 7.32 11.2971 8.62286 10.4629 9.64ZM1.17137 5.90001C1.17137 8.50572 3.29137 10.6257 5.89994 10.6257C8.50565 10.6257 10.6285 8.50572 10.6285 5.90001C10.6285 3.29429 8.50565 1.17144 5.89994 1.17144C3.29137 1.17144 1.17137 3.29429 1.17137 5.90001Z" fill="white"/>
</svg>
